<svg width="320" height="320" viewBox="0 0 320 320" fill="none" xmlns="http://www.w3.org/2000/svg">
<path d="M200.212 262.176C199.205 266.478 201.876 270.782 206.178 271.789C210.48 272.796 214.784 270.125 215.791 265.823L221.617 240.934C222.976 235.127 219.918 230.315 216.275 227.931C212.683 225.581 207.322 224.744 202.603 227.713C189.707 235.827 174.689 240.131 159.302 239.997C140.255 239.83 121.892 232.873 107.516 220.377C93.14 207.88 83.6948 190.664 80.8793 171.824C78.0638 152.985 82.0628 133.76 92.1568 117.606C94.4981 113.859 93.3587 108.924 89.6118 106.582C85.8649 104.241 80.9294 105.381 78.588 109.127C66.4752 128.512 61.6765 151.583 65.0551 174.189C68.4337 196.796 79.7678 217.456 97.0189 232.452C114.27 247.448 136.306 255.797 159.163 255.996C174.927 256.134 190.369 252.389 204.179 245.231L200.212 262.176Z" fill="#25D07D"/>
<path d="M227.845 202.393C225.504 206.14 226.643 211.076 230.39 213.417C234.137 215.758 239.073 214.619 241.414 210.872C253.527 191.487 258.325 168.417 254.947 145.81C251.568 123.203 240.234 102.544 222.983 87.5475C205.732 72.5513 183.696 64.2027 160.839 64.0032C145.075 63.8657 129.633 67.6106 115.824 74.7682L119.791 57.8232C120.798 53.5212 118.127 49.2174 113.825 48.2103C109.523 47.2031 105.219 49.8741 104.212 54.1761L98.3855 79.0644C97.0261 84.8715 100.085 89.6841 103.727 92.0678C107.319 94.4183 112.68 95.2552 117.399 92.2863C130.295 84.1725 145.313 79.8683 160.699 80.0026C179.747 80.1688 198.11 87.126 212.486 99.6228C226.862 112.12 236.307 129.336 239.123 148.175C241.938 167.014 237.939 186.239 227.845 202.393Z" fill="#25D07D"/>
<rect x="144" y="132" width="20" height="16" rx="8" transform="rotate(90 144 132)" fill="#25D07D"/>
<rect x="192" y="132" width="20" height="16" rx="8" transform="rotate(90 192 132)" fill="#25D07D"/>
<path d="M136 176C142.095 184.524 149.524 188.239 160 188C170.848 187.753 178.445 183.321 184 174" stroke="#25D07D" stroke-width="16" stroke-linecap="round"/>
</svg>
